<?xml version="1.0" encoding="UTF-8" standalone="no"?>
<svg width="501px" height="125px" viewBox="0 0 501 125" version="1.1" xmlns="http://www.w3.org/2000/svg" xmlns:xlink="http://www.w3.org/1999/xlink">
    <!-- Generator: Sketch Beta 3.6 (26298) - http://www.bohemiancoding.com/sketch -->
    <title>Group</title>
    <desc>Created with Sketch Beta.</desc>
    <defs>
        <path id="path-1" d="M13.27026,49.1082377 L15.1674474,0 L55.0120875,23.2298338 C55.0120875,23.2298338 62.2572271,22.0814851 70.1955965,22.0814851 C78.1339658,22.0814851 85.375863,23.2298338 85.375863,23.2298338 L125.601187,0 L127.488415,49.1082377 L140.391193,73.0847085 C140.391193,73.0847085 104.408509,117.63136 70.1955965,117.63136 C35.9826841,117.63136 0,73.0847085 0,73.0847085 L13.27026,49.1082377 Z"></path>
        <path id="path-3" d="M13.27026,49.1082377 L15.1674474,0 L55.0120875,23.2298338 C55.0120875,23.2298338 62.2572271,22.3904053 70.1955965,22.3904053 C78.1339658,22.3904053 85.375863,23.2298338 85.375863,23.2298338 L125.601187,0 L127.488415,49.1082377 L140.391193,73.0847085 C140.391193,73.0847085 101.323414,118.022026 70.1955965,118.022026 C39.0677791,118.022026 0,73.0847085 0,73.0847085 L13.27026,49.1082377 Z"></path>
    </defs>
    <g id="Page-1" stroke="none" stroke-width="1" fill="none" fill-rule="evenodd">
        <g id="WillChill-Mark+type" transform="translate(-148.000000, -237.000000)">
            <g id="Group" transform="translate(151.000000, 240.000000)">
                <g id="Type" transform="translate(172.743200, 25.606080)">
                    <path d="M14.9734865,71.2555556 L0.688404236,27.2858699 C0.0581832181,26.0202904 0.896895743,24.9212878 2.41750083,24.9212878 L10.3198867,24.9212878 C11.0219306,24.9212878 11.9940238,25.4984682 12.1451231,26.1784151 L19.2417979,48.4849613 L19.287452,48.6284456 L19.4380243,48.6284456 L19.539337,48.6284456 L19.6646781,48.6284456 L19.7222498,48.5171087 L31.9810792,24.8099509 C32.2078528,24.2456085 32.7252717,23.9081614 33.6217939,23.9081614 L34.5336077,23.9081614 C35.4779176,23.9081614 35.9675197,24.1937627 36.2743674,24.807458 L48.4328335,48.5164903 L48.4902464,48.6284456 L48.6160647,48.6284456 L48.7173773,48.6284456 L48.8686037,48.6284456 L48.9138602,48.4841497 L55.9044323,26.1953689 C56.2192351,25.1722702 56.8215928,24.9212878 58.3420781,24.9212878 L65.4339629,24.9212878 C66.9301861,24.9212878 67.8203736,26.0124855 67.3676049,27.2802381 L52.9794228,71.2551479 C52.7879213,71.9248647 52.0164269,72.4303265 51.047568,72.4303265 L50.6423175,72.4303265 C49.83333,72.4303265 49.3603111,72.1149806 48.8887131,71.4075836 L34.2096218,43.2616644 L34.1518873,43.1509736 L34.0270445,43.1509736 L33.9257319,43.1509736 L33.800889,43.1509736 L33.7431546,43.2616644 L19.0528218,71.4265784 C18.7622472,72.0076602 18.101831,72.4303265 17.4117715,72.4303265 L16.8038957,72.4303265 C15.856069,72.4303265 15.1716684,71.9487113 14.9756399,71.2626116 L14.9734865,71.2555556 Z" id="Shape" fill="#FFFFFF"></path>
                    <path d="M128.846615,69.2929294 L128.846615,2.83183758 C128.846615,1.83112502 129.868861,0.8088795 130.869573,0.8088795 L139.075897,0.8088795 C140.07661,0.8088795 141.098855,1.83112502 141.098855,2.83183758 L141.098855,69.2929294 C141.098855,70.3597416 140.11283,71.3158875 139.075897,71.3158875 L130.869573,71.3158875 C129.832641,71.3158875 128.846615,70.3597416 128.846615,69.2929294 L128.846615,69.2929294 Z" id="Path" fill="#FFFFFF"></path>
                    <path d="M312.742236,69.2929294 L312.742236,2.83183758 C312.742236,1.83112502 313.764481,0.8088795 314.765194,0.8088795 L322.971517,0.8088795 C323.97223,0.8088795 324.994476,1.83112502 324.994476,2.83183758 L324.994476,69.2929294 C324.994476,70.3597416 324.00845,71.3158875 322.971517,71.3158875 L314.765194,71.3158875 C313.728261,71.3158875 312.742236,70.3597416 312.742236,69.2929294 L312.742236,69.2929294 Z" id="Path" fill="#7499F5"></path>
                    <path d="M286.742776,69.2929294 L286.742776,2.83183758 C286.742776,1.83112502 287.765022,0.8088795 288.765734,0.8088795 L296.972058,0.8088795 C297.972771,0.8088795 298.995016,1.83112502 298.995016,2.83183758 L298.995016,69.2929294 C298.995016,70.3597416 298.008991,71.3158875 296.972058,71.3158875 L288.765734,71.3158875 C287.728802,71.3158875 286.742776,70.3597416 286.742776,69.2929294 L286.742776,69.2929294 Z" id="Path" fill="#7499F5"></path>
                    <path d="M266.818781,16.5057493 C262.428813,16.5057493 259.021002,13.0074653 259.021002,8.60665806 C259.021002,4.22680963 262.408951,0.8088795 266.818781,0.8088795 C271.248971,0.8088795 274.717872,4.24761576 274.717872,8.60665806 C274.717872,12.9863241 271.228787,16.5057493 266.818781,16.5057493 L266.818781,16.5057493 Z" id="Path" fill="#7499F5"></path>
                    <path d="M260.84463,69.2929294 L260.84463,26.9442459 C260.84463,25.8114274 261.792198,24.9212878 262.867588,24.9212878 L271.073912,24.9212878 C272.149302,24.9212878 273.09687,25.8114274 273.09687,26.9442459 L273.09687,69.2929294 C273.09687,70.3597416 272.110844,71.3158875 271.073912,71.3158875 L262.867588,71.3158875 C261.830655,71.3158875 260.84463,70.3597416 260.84463,69.2929294 L260.84463,69.2929294 Z" id="Path" fill="#7499F5"></path>
                    <path d="M204.755317,69.2929294 L204.755317,2.83183758 C204.755317,1.83112502 205.777562,0.8088795 206.778275,0.8088795 L214.984598,0.8088795 C216.051411,0.8088795 217.007557,1.79490494 217.007557,2.83183758 L217.007557,27.6534344 L217.007557,28.1053795 L217.348597,27.8088227 C220.076131,25.4370543 224.241046,23.9081614 229.168368,23.9081614 C242.290392,23.9081614 247.907912,31.8271321 247.907912,45.7883969 L247.907912,69.2929294 C247.907912,70.3597416 246.921886,71.3158875 245.884954,71.3158875 L237.67863,71.3158875 C236.576605,71.3158875 235.655672,70.3949546 235.655672,69.2929294 L235.655672,45.6870843 C235.655672,38.9688003 232.533977,35.0459624 226.93949,35.0459624 C221.734471,35.0459624 218.363138,38.1229721 217.013957,43.4072651 L217.007557,69.2929294 C217.007557,70.6395885 216.353074,71.3158875 214.781973,71.3158875 L206.778275,71.3158875 C205.741342,71.3158875 204.755317,70.3597416 204.755317,69.2929294 L204.755317,69.2929294 Z" id="Path" fill="#7499F5"></path>
                    <path d="M151.908008,48.1185877 C151.908008,34.4982097 162.712306,23.9081614 176.523685,23.9081614 C183.310261,23.9081614 189.015665,26.635745 193.799133,31.7453581 C194.629194,32.5755778 194.380624,33.719001 193.297288,34.802337 L189.035696,39.4694804 C188.229488,40.3563079 187.312619,40.1774066 186.293993,39.1587806 C183.406715,36.4026659 180.670313,35.0459624 176.827622,35.0459624 C169.549857,35.0459624 164.26156,40.672464 164.26156,48.1185877 C164.26156,55.6735251 169.453028,61.2925256 176.72631,61.2925256 C181.088969,61.2925256 183.679372,59.6553913 186.810337,56.0547813 C187.465397,55.3061427 188.75511,55.1561761 189.457416,55.7706936 L194.019228,59.6229324 C195.18189,60.6800834 195.47437,61.6700157 194.791249,62.6946966 C190.759682,69.0004115 184.441417,72.4303265 176.422372,72.4303265 C162.674899,72.4303265 151.908008,61.9074444 151.908008,48.1185877 L151.908008,48.1185877 Z" id="Path" fill="#7499F5"></path>
                    <path d="M102.847156,69.2929294 L102.847156,2.83183758 C102.847156,1.83112502 103.869401,0.8088795 104.870114,0.8088795 L113.076438,0.8088795 C114.07715,0.8088795 115.099396,1.83112502 115.099396,2.83183758 L115.099396,69.2929294 C115.099396,70.3597416 114.11337,71.3158875 113.076438,71.3158875 L104.870114,71.3158875 C103.833181,71.3158875 102.847156,70.3597416 102.847156,69.2929294 L102.847156,69.2929294 Z" id="Path" fill="#FFFFFF"></path>
                    <path d="M82.9231604,16.5057493 C78.5331929,16.5057493 75.1253818,13.0074653 75.1253818,8.60665806 C75.1253818,4.22680963 78.5133301,0.8088795 82.9231604,0.8088795 C87.3533509,0.8088795 90.8222516,4.24761576 90.8222516,8.60665806 C90.8222516,12.9863241 87.3331663,16.5057493 82.9231604,16.5057493 L82.9231604,16.5057493 Z" id="Path" fill="#FFFFFF"></path>
                    <path d="M76.9490093,69.2929294 L76.9490093,26.9442459 C76.9490093,25.8114274 77.8965772,24.9212878 78.9719674,24.9212878 L87.1782912,24.9212878 C88.2536814,24.9212878 89.2012493,25.8114274 89.2012493,26.9442459 L89.2012493,69.2929294 C89.2012493,70.3597416 88.2152239,71.3158875 87.1782912,71.3158875 L78.9719674,71.3158875 C77.9350348,71.3158875 76.9490093,70.3597416 76.9490093,69.2929294 L76.9490093,69.2929294 Z" id="Path" fill="#FFFFFF"></path>
                </g>
                <g id="Fox" transform="translate(0.432640, 0.200320)">
                    <mask id="mask-2" fill="white">
                        <use xlink:href="#path-1"></use>
                    </mask>
                    <use id="Mask" fill="#DBE4EE" xlink:href="#path-1"></use>
                    <g id="Marking" mask="url(#mask-2)" fill="#FFFFFF">
                        <g transform="translate(0.758912, 46.293632)" id="Path-13">
                            <path d="M64.7281473,56.159488 C64.7582716,55.5651812 64.7735695,54.9445671 64.7735695,54.2969679 C64.7735695,0.750670207 33.2309729,-6.79027846 14.0660228,4.53166395 C13.1382546,5.36348404 0.379456,24.738793 0.379456,24.738793 C0.379456,24.738793 44.2592133,73.5111264 59.574592,66.8999967 L59.574592,68.30208 L79.68576,68.30208 L79.68576,66.997186 C95.2118002,73.0130626 138.643457,24.738793 138.643457,24.738793 C138.643457,24.738793 125.884658,5.36348404 124.95689,4.53166395 C105.79194,-6.79027846 74.2493433,0.750670207 74.2493433,54.2969679 C74.2493433,54.9445671 74.2646412,55.5651812 74.2947655,56.159488 L64.7281473,56.159488 Z"></path>
                        </g>
                    </g>
                    <g id="Ears" mask="url(#mask-2)" fill="#B3C1D0">
                        <g transform="translate(11.004224, 0.758912)" id="Path-45">
                            <path d="M5.74186594,0.331282875 L0,20.8270948 L4.82199085,49.7492663 C4.82199085,49.7492663 12.1381517,40.3196402 17.4387411,36.265974 L5.74186594,0.331282875 Z"></path>
                            <path d="M107.056618,0.331282875 L101.314752,20.8270948 L106.136743,49.7492663 C106.136743,49.7492663 113.452904,40.3196402 118.753493,36.265974 L107.056618,0.331282875 Z" transform="translate(110.034123, 25.040275) scale(-1, 1) translate(-110.034123, -25.040275) "></path>
                        </g>
                    </g>
                    <g id="Eyes" mask="url(#mask-2)" fill="#31394C">
                        <g transform="translate(33.771584, 66.784256)" id="Oval-28">
                            <circle cx="7.019936" cy="7.019936" r="7.019936"></circle>
                            <circle cx="65.835616" cy="7.019936" r="7.019936"></circle>
                        </g>
                    </g>
                    <g id="Nose" mask="url(#mask-2)" fill="#31394C">
                        <g transform="translate(63.748608, 97.899648)" id="Rectangle-33">
                            <rect x="0" y="0.379456" width="12.673831" height="10.5023628" rx="4.174016"></rect>
                        </g>
                    </g>
                    <mask id="mask-4" fill="white">
                        <use xlink:href="#path-3"></use>
                    </mask>
                    <use id="Outline" stroke="#31394C" stroke-width="6.3748608" stroke-linecap="round" stroke-linejoin="round" xlink:href="#path-3"></use>
                </g>
            </g>
        </g>
    </g>
</svg>